<svg width="342" height="89" viewBox="0 0 342 89" fill="none" xmlns="http://www.w3.org/2000/svg">
<g filter="url(#filter0_d_13_8)">
<mask id="path-1-outside-1_13_8" maskUnits="userSpaceOnUse" x="4.71722" y="0.119995" width="334" height="81" fill="black">
<rect fill="white" x="4.71722" y="0.119995" width="334" height="81"/>
<path d="M23.9532 53.416C19.3426 53.416 15.6506 52.5493 12.8772 50.816C10.1039 49.048 8.71722 46.3613 8.71722 42.756C8.71722 40.8493 9.04656 39.3933 9.70522 38.388C10.3639 37.3827 11.3346 36.88 12.6172 36.88C13.5532 36.88 14.3159 37.1227 14.9052 37.608C15.4946 38.0933 15.7892 38.7173 15.7892 39.48C15.7892 40.1733 15.7372 40.78 15.6332 41.3C15.6332 41.4387 15.5986 41.6813 15.5292 42.028C15.4946 42.3747 15.4772 42.7387 15.4772 43.12C15.4772 44.68 16.2572 45.8413 17.8172 46.604C19.4119 47.3667 21.6306 47.748 24.4732 47.748C27.4199 47.748 29.7252 47.228 31.3892 46.188C33.0532 45.1133 33.8852 43.6227 33.8852 41.716C33.8852 40.5373 33.5039 39.532 32.7412 38.7C31.9786 37.8333 31.0252 37.1227 29.8812 36.568C28.7372 35.9787 27.1252 35.268 25.0452 34.436C22.3759 33.396 20.1919 32.408 18.4932 31.472C16.8292 30.536 15.3906 29.2707 14.1772 27.676C12.9986 26.0467 12.4092 24.036 12.4092 21.644C12.4092 19.148 13.0679 16.9293 14.3852 14.988C15.7372 13.0467 17.6612 11.5387 20.1572 10.464C22.6879 9.38933 25.6519 8.852 29.0492 8.852C31.5799 8.852 33.9026 9.23333 36.0172 9.996C38.1319 10.724 39.8132 11.8507 41.0612 13.376C42.3439 14.9013 42.9852 16.7733 42.9852 18.992C42.9852 21.176 42.6559 22.8227 41.9972 23.932C41.3386 25.0413 40.3679 25.596 39.0852 25.596C38.1839 25.596 37.4212 25.3187 36.7972 24.764C36.2079 24.2093 35.9132 23.5507 35.9132 22.788C35.9132 22.1293 35.9652 21.5227 36.0692 20.968C36.1732 19.928 36.2252 19.2693 36.2252 18.992C36.2252 17.536 35.5146 16.4267 34.0932 15.664C32.6719 14.9013 30.9039 14.52 28.7892 14.52C25.8079 14.52 23.5199 15.0747 21.9252 16.184C20.3652 17.2587 19.5852 18.784 19.5852 20.76C19.5852 22.0773 19.9839 23.204 20.7812 24.14C21.6132 25.076 22.6359 25.856 23.8492 26.48C25.0626 27.104 26.7612 27.8493 28.9452 28.716C31.5799 29.7907 33.6946 30.7613 35.2892 31.628C36.8839 32.4947 38.2359 33.6733 39.3452 35.164C40.4892 36.6547 41.0612 38.492 41.0612 40.676C41.0612 44.7667 39.5012 47.9213 36.3812 50.14C33.2959 52.324 29.1532 53.416 23.9532 53.416Z"/>
<path d="M68.1841 41.404C68.6348 41.404 68.9814 41.612 69.2241 42.028C69.5014 42.444 69.6401 43.016 69.6401 43.744C69.6401 45.1307 69.3108 46.2053 68.6521 46.968C67.1614 48.8053 65.5321 50.3133 63.7641 51.492C61.9961 52.6707 59.9681 53.26 57.6801 53.26C50.6081 53.26 47.0721 48.2853 47.0721 38.336C47.0721 36.8107 47.1241 35.268 47.2281 33.708H45.2001C44.1601 33.708 43.4494 33.5173 43.0681 33.136C42.7214 32.7547 42.5481 32.148 42.5481 31.316C42.5481 29.3747 43.3281 28.404 44.8881 28.404H47.8521C48.4414 24.5907 49.3428 21.1067 50.5561 17.952C51.7694 14.7973 53.2254 12.284 54.9241 10.412C56.6574 8.54 58.5121 7.604 60.4881 7.604C61.9441 7.604 63.0881 8.24533 63.9201 9.528C64.7521 10.8107 65.1681 12.4227 65.1681 14.364C65.1681 19.7373 62.9148 24.4173 58.4081 28.404H64.2321C64.7868 28.404 65.1854 28.5253 65.4281 28.768C65.6708 29.0107 65.7921 29.4613 65.7921 30.12C65.7921 32.512 63.8334 33.708 59.9161 33.708H53.5721C53.5028 35.4413 53.4681 36.7933 53.4681 37.764C53.4681 41.3693 53.8841 43.9 54.7161 45.356C55.5828 46.812 56.9348 47.54 58.7721 47.54C60.2628 47.54 61.5801 47.0893 62.7241 46.188C63.8681 45.2867 65.2201 43.9347 66.7801 42.132C67.1961 41.6467 67.6641 41.404 68.1841 41.404ZM59.0841 12.596C58.5641 12.596 57.9748 13.2547 57.3161 14.572C56.6921 15.8547 56.0854 17.6573 55.4961 19.98C54.9414 22.268 54.4734 24.816 54.0921 27.624C56.1374 25.856 57.6628 23.88 58.6681 21.696C59.7081 19.4773 60.2281 17.4667 60.2281 15.664C60.2281 13.6187 59.8468 12.596 59.0841 12.596Z"/>
<path d="M69.0982 53.26C67.7808 53.26 66.8448 52.5667 66.2902 51.18C65.7702 49.7933 65.5102 47.5747 65.5102 44.524C65.5102 40.0173 66.1515 35.736 67.4342 31.68C67.7462 30.6747 68.2488 29.9467 68.9422 29.496C69.6702 29.0107 70.6755 28.768 71.9582 28.768C72.6515 28.768 73.1368 28.8547 73.4142 29.028C73.6915 29.2013 73.8302 29.5307 73.8302 30.016C73.8302 30.5707 73.5702 31.8187 73.0502 33.76C72.7035 35.1467 72.4262 36.36 72.2182 37.4C72.0102 38.44 71.8368 39.7227 71.6982 41.248C72.8422 38.2667 74.1248 35.84 75.5462 33.968C76.9675 32.096 78.3542 30.7613 79.7062 29.964C81.0928 29.1667 82.3582 28.768 83.5022 28.768C85.7555 28.768 86.8822 29.8947 86.8822 32.148C86.8822 32.5987 86.7262 33.6907 86.4142 35.424C86.1368 36.8107 85.9982 37.6773 85.9982 38.024C85.9982 39.2373 86.4315 39.844 87.2982 39.844C88.2688 39.844 89.5168 39.0813 91.0422 37.556C91.4928 37.1053 91.9608 36.88 92.4462 36.88C92.8968 36.88 93.2435 37.088 93.4862 37.504C93.7635 37.8853 93.9022 38.4053 93.9022 39.064C93.9022 40.3467 93.5555 41.352 92.8622 42.08C91.8915 43.0853 90.7475 43.952 89.4302 44.68C88.1475 45.3733 86.7782 45.72 85.3222 45.72C83.4848 45.72 82.0808 45.252 81.1102 44.316C80.1742 43.38 79.7062 42.1147 79.7062 40.52C79.7062 40 79.7582 39.48 79.8622 38.96C79.9315 38.2667 79.9662 37.7987 79.9662 37.556C79.9662 37.0013 79.7755 36.724 79.3942 36.724C78.8742 36.724 78.1808 37.3133 77.3142 38.492C76.4822 39.636 75.6502 41.1613 74.8182 43.068C73.9862 44.9747 73.3102 46.9853 72.7902 49.1C72.4088 50.7293 71.9582 51.8387 71.4382 52.428C70.9528 52.9827 70.1728 53.26 69.0982 53.26Z"/>
<path d="M95.4662 53.26C93.3169 53.26 91.6009 52.48 90.3182 50.92C89.0356 49.36 88.3942 47.3147 88.3942 44.784C88.3942 42.0107 89.0356 39.3933 90.3182 36.932C91.6009 34.436 93.2996 32.4427 95.4142 30.952C97.5636 29.4267 99.8342 28.664 102.226 28.664C102.989 28.664 103.492 28.82 103.734 29.132C104.012 29.4093 104.237 29.9293 104.41 30.692C105.138 30.5533 105.901 30.484 106.698 30.484C108.397 30.484 109.246 31.0907 109.246 32.304C109.246 33.032 108.986 34.7653 108.466 37.504C107.669 41.4907 107.27 44.264 107.27 45.824C107.27 46.344 107.392 46.76 107.634 47.072C107.912 47.384 108.258 47.54 108.674 47.54C109.333 47.54 110.13 47.124 111.066 46.292C112.002 45.4253 113.268 44.0387 114.862 42.132C115.278 41.6467 115.746 41.404 116.266 41.404C116.717 41.404 117.064 41.612 117.306 42.028C117.584 42.444 117.722 43.016 117.722 43.744C117.722 45.1307 117.393 46.2053 116.734 46.968C115.313 48.736 113.805 50.2267 112.21 51.44C110.616 52.6533 109.073 53.26 107.582 53.26C106.438 53.26 105.381 52.8787 104.41 52.116C103.474 51.3187 102.764 50.244 102.278 48.892C100.476 51.804 98.2049 53.26 95.4662 53.26ZM97.3382 48.008C98.1009 48.008 98.8289 47.5573 99.5222 46.656C100.216 45.7547 100.718 44.5587 101.03 43.068L102.954 33.5C101.498 33.5347 100.146 34.0893 98.8982 35.164C97.6849 36.204 96.7142 37.5907 95.9862 39.324C95.2582 41.0573 94.8942 42.8947 94.8942 44.836C94.8942 45.9107 95.1022 46.708 95.5182 47.228C95.9689 47.748 96.5756 48.008 97.3382 48.008Z"/>
<path d="M117.188 53.26C115.871 53.26 114.935 52.5667 114.38 51.18C113.86 49.7933 113.6 47.5747 113.6 44.524C113.6 40.0173 114.241 35.736 115.524 31.68C115.836 30.6747 116.339 29.9467 117.032 29.496C117.76 29.0107 118.765 28.768 120.048 28.768C120.741 28.768 121.227 28.8547 121.504 29.028C121.781 29.2013 121.92 29.5307 121.92 30.016C121.92 30.5707 121.66 31.8187 121.14 33.76C120.793 35.1467 120.516 36.36 120.308 37.4C120.1 38.44 119.927 39.7227 119.788 41.248C120.932 38.2667 122.215 35.84 123.636 33.968C125.057 32.096 126.444 30.7613 127.796 29.964C129.183 29.1667 130.448 28.768 131.592 28.768C133.845 28.768 134.972 29.8947 134.972 32.148C134.972 33.5 134.591 35.944 133.828 39.48C133.169 42.496 132.84 44.4893 132.84 45.46C132.84 46.8467 133.343 47.54 134.348 47.54C135.041 47.54 135.856 47.124 136.792 46.292C137.763 45.4253 139.045 44.0387 140.64 42.132C141.056 41.6467 141.524 41.404 142.044 41.404C142.495 41.404 142.841 41.612 143.084 42.028C143.361 42.444 143.5 43.016 143.5 43.744C143.5 45.1307 143.171 46.2053 142.512 46.968C141.021 48.8053 139.409 50.3133 137.676 51.492C135.977 52.6707 134.036 53.26 131.852 53.26C130.084 53.26 128.749 52.7573 127.848 51.752C126.947 50.712 126.496 49.2213 126.496 47.28C126.496 46.3093 126.739 44.576 127.224 42.08C127.675 39.896 127.9 38.388 127.9 37.556C127.9 37.0013 127.709 36.724 127.328 36.724C126.877 36.724 126.236 37.3133 125.404 38.492C124.607 39.636 123.775 41.1613 122.908 43.068C122.076 44.9747 121.4 46.9853 120.88 49.1C120.499 50.7293 120.048 51.8387 119.528 52.428C119.043 52.9827 118.263 53.26 117.188 53.26Z"/>
<path d="M165.917 41.508C166.368 41.508 166.714 41.7333 166.957 42.184C167.234 42.6 167.373 43.1373 167.373 43.796C167.373 44.5933 167.252 45.2173 167.009 45.668C166.766 46.1187 166.385 46.5173 165.865 46.864C162.884 48.8747 160.7 50.3653 159.313 51.336L155.985 53.572C154.668 60.748 152.934 66.3813 150.785 70.472C148.67 74.5973 145.966 76.66 142.673 76.66C140.905 76.66 139.466 76.1053 138.357 74.996C137.248 73.9213 136.693 72.5 136.693 70.732C136.693 68.2707 137.664 65.6187 139.605 62.776C141.546 59.968 145.186 56.5013 150.525 52.376L150.837 50.348C150.248 51.284 149.468 52.012 148.497 52.532C147.561 53.0173 146.625 53.26 145.689 53.26C143.54 53.26 141.824 52.48 140.541 50.92C139.258 49.36 138.617 47.3147 138.617 44.784C138.617 42.0107 139.258 39.3933 140.541 36.932C141.824 34.436 143.522 32.4427 145.637 30.952C147.786 29.4267 150.057 28.664 152.449 28.664C153.212 28.664 153.714 28.82 153.957 29.132C154.234 29.4093 154.46 29.9293 154.633 30.692C155.292 30.5533 156.054 30.484 156.921 30.484C157.788 30.484 158.394 30.6227 158.741 30.9C159.122 31.1427 159.313 31.6453 159.313 32.408C159.313 32.824 159.296 33.1533 159.261 33.396C159.122 34.4707 158.689 37.192 157.961 41.56C157.822 42.392 157.666 43.3107 157.493 44.316C157.354 45.2867 157.198 46.3267 157.025 47.436C159.694 45.356 162.26 43.5187 164.721 41.924C165.172 41.6467 165.57 41.508 165.917 41.508ZM147.561 48.008C148.358 48.008 149.121 47.5227 149.849 46.552C150.577 45.5813 151.097 44.1947 151.409 42.392L153.073 33.5C151.652 33.5347 150.334 34.0893 149.121 35.164C147.908 36.204 146.937 37.5907 146.209 39.324C145.481 41.0573 145.117 42.8947 145.117 44.836C145.117 45.9107 145.325 46.708 145.741 47.228C146.192 47.748 146.798 48.008 147.561 48.008ZM143.245 71.616C144.112 71.616 145.082 70.576 146.157 68.496C147.266 66.416 148.324 63.1053 149.329 58.564C146.66 60.852 144.736 62.9147 143.557 64.752C142.378 66.5893 141.789 68.2013 141.789 69.588C141.789 70.1773 141.893 70.6627 142.101 71.044C142.344 71.4253 142.725 71.616 143.245 71.616Z"/>
<path d="M187.368 41.404C187.818 41.404 188.165 41.612 188.408 42.028C188.685 42.444 188.824 43.016 188.824 43.744C188.824 45.1307 188.494 46.2053 187.836 46.968C186.553 48.528 184.733 49.9667 182.376 51.284C180.053 52.6013 177.557 53.26 174.888 53.26C171.248 53.26 168.422 52.272 166.412 50.296C164.401 48.32 163.396 45.616 163.396 42.184C163.396 39.792 163.898 37.5733 164.904 35.528C165.909 33.448 167.296 31.8013 169.064 30.588C170.866 29.3747 172.894 28.768 175.148 28.768C177.158 28.768 178.77 29.3747 179.984 30.588C181.197 31.7667 181.804 33.3787 181.804 35.424C181.804 37.816 180.937 39.8787 179.204 41.612C177.505 43.3107 174.61 44.6627 170.52 45.668C171.386 47.2627 173.033 48.06 175.46 48.06C177.02 48.06 178.788 47.5227 180.764 46.448C182.774 45.3387 184.508 43.9 185.964 42.132C186.38 41.6467 186.848 41.404 187.368 41.404ZM174.264 33.864C172.981 33.864 171.889 34.6093 170.988 36.1C170.121 37.5907 169.688 39.3933 169.688 41.508V41.612C171.733 41.1267 173.345 40.3987 174.524 39.428C175.702 38.4573 176.292 37.3307 176.292 36.048C176.292 35.3893 176.101 34.8693 175.72 34.488C175.373 34.072 174.888 33.864 174.264 33.864Z"/>
<path d="M205.598 35.892C206.36 35.892 207.002 36.1693 207.522 36.724C208.076 37.244 208.354 37.9027 208.354 38.7C208.354 39.1507 208.25 39.636 208.042 40.156C207.487 41.4387 206.707 42.5133 205.702 43.38C204.696 44.2467 203.587 44.68 202.374 44.68C201.403 44.68 200.571 44.3333 199.878 43.64C199.219 42.9467 198.89 42.0107 198.89 40.832C198.89 40.1733 198.924 39.4627 198.994 38.7C199.063 38.1453 199.098 37.764 199.098 37.556C199.098 37.2787 199.028 37.0707 198.89 36.932C198.786 36.7933 198.647 36.724 198.474 36.724C197.988 36.724 197.33 37.3133 196.498 38.492C195.666 39.636 194.834 41.1613 194.002 43.068C193.17 44.9747 192.494 46.9853 191.974 49.1C191.592 50.764 191.159 51.8733 190.674 52.428C190.188 52.9827 189.391 53.26 188.282 53.26C186.964 53.26 186.028 52.5667 185.474 51.18C184.954 49.7933 184.694 47.5747 184.694 44.524C184.694 40.0173 185.335 35.736 186.618 31.68C186.93 30.6747 187.432 29.9467 188.126 29.496C188.854 29.0107 189.859 28.768 191.142 28.768C191.835 28.768 192.32 28.8547 192.598 29.028C192.875 29.2013 193.014 29.5307 193.014 30.016C193.014 30.5707 192.754 31.8187 192.234 33.76C191.887 35.1467 191.61 36.36 191.402 37.4C191.194 38.44 191.02 39.7227 190.882 41.248C192.026 38.2667 193.308 35.84 194.73 33.968C196.151 32.096 197.538 30.7613 198.89 29.964C200.242 29.1667 201.472 28.768 202.582 28.768C203.587 28.768 204.35 29.0627 204.87 29.652C205.424 30.2067 205.702 31.0387 205.702 32.148C205.702 32.8067 205.511 34.0547 205.13 35.892H205.598Z"/>
<path d="M218.688 54.404C216.885 54.404 215.498 53.988 214.528 53.156C213.592 52.324 213.124 51.388 213.124 50.348C213.124 49.4467 213.453 48.6667 214.112 48.008C214.77 47.3493 215.741 47.02 217.024 47.02C217.474 47.02 217.994 47.072 218.584 47.176C219.208 47.2453 219.676 47.2973 219.988 47.332C219.953 46.4307 219.745 45.5813 219.364 44.784C219.017 43.9867 218.566 43.224 218.012 42.496C217.457 41.7333 216.937 41.0747 216.452 40.52C215.377 42.5653 214.302 44.264 213.228 45.616C212.188 46.968 211.044 48.2507 209.796 49.464C209.172 50.088 208.513 50.4 207.82 50.4C207.265 50.4 206.814 50.2093 206.468 49.828C206.121 49.412 205.948 48.9093 205.948 48.32C205.948 47.6267 206.19 46.9853 206.676 46.396L207.352 45.564C209.258 43.2067 210.697 41.2653 211.668 39.74C212.292 38.7347 212.916 37.5387 213.54 36.152C214.198 34.7653 215.048 32.876 216.088 30.484C216.746 28.9587 218.116 28.196 220.196 28.196C221.166 28.196 221.842 28.2827 222.224 28.456C222.605 28.6293 222.796 28.9067 222.796 29.288C222.796 29.496 222.726 29.8253 222.588 30.276C222.449 30.7267 222.258 31.1773 222.016 31.628C221.392 32.876 221.08 33.9333 221.08 34.8C221.08 35.32 221.253 35.892 221.6 36.516C221.981 37.14 222.553 37.92 223.316 38.856C224.425 40.312 225.257 41.56 225.812 42.6C226.401 43.6053 226.696 44.7147 226.696 45.928C226.696 47.384 226.349 48.7707 225.656 50.088C224.997 51.3707 224.061 52.4107 222.848 53.208C221.634 54.0053 220.248 54.404 218.688 54.404Z"/>
<path d="M234.643 53.26C233.117 53.26 231.956 52.844 231.159 52.012C230.396 51.18 230.015 50.088 230.015 48.736C230.015 47.176 230.448 45.928 231.315 44.992C232.216 44.056 233.464 43.588 235.059 43.588C236.584 43.588 237.728 43.9693 238.491 44.732C239.288 45.46 239.687 46.552 239.687 48.008C239.687 49.6027 239.236 50.8853 238.335 51.856C237.433 52.792 236.203 53.26 234.643 53.26Z"/>
<path d="M253.326 53.26C249.929 53.26 247.277 52.3067 245.37 50.4C243.498 48.4587 242.562 45.9107 242.562 42.756C242.562 39.948 243.117 37.4867 244.226 35.372C245.336 33.2573 246.774 31.628 248.542 30.484C250.31 29.34 252.165 28.768 254.106 28.768C256.013 28.768 257.486 29.34 258.526 30.484C259.601 31.5933 260.138 33.032 260.138 34.8C260.138 36.256 259.809 37.4867 259.15 38.492C258.526 39.4973 257.694 40 256.654 40C255.996 40 255.458 39.844 255.042 39.532C254.661 39.22 254.47 38.7867 254.47 38.232C254.47 37.9893 254.505 37.712 254.574 37.4C254.644 37.088 254.696 36.8627 254.73 36.724C254.904 36.204 254.99 35.7187 254.99 35.268C254.99 34.8173 254.869 34.4707 254.626 34.228C254.418 33.9853 254.106 33.864 253.69 33.864C252.893 33.864 252.148 34.228 251.454 34.956C250.761 35.6493 250.206 36.6027 249.79 37.816C249.374 39.0293 249.166 40.364 249.166 41.82C249.166 45.8413 250.917 47.852 254.418 47.852C255.84 47.852 257.365 47.384 258.994 46.448C260.658 45.4773 262.288 44.0387 263.882 42.132C264.298 41.6467 264.766 41.404 265.286 41.404C265.737 41.404 266.084 41.612 266.326 42.028C266.604 42.444 266.742 43.016 266.742 43.744C266.742 45.0613 266.413 46.136 265.754 46.968C264.125 48.9787 262.166 50.5387 259.878 51.648C257.625 52.7227 255.441 53.26 253.326 53.26Z"/>
<path d="M291.399 41.404C291.85 41.404 292.196 41.612 292.439 42.028C292.716 42.444 292.855 43.016 292.855 43.744C292.855 45.1307 292.526 46.2053 291.867 46.968C290.272 48.8053 288.626 50.3133 286.927 51.492C285.263 52.6707 283.356 53.26 281.207 53.26C279.439 53.26 278.104 52.7573 277.203 51.752C276.302 50.712 275.851 49.2213 275.851 47.28C275.851 46.3093 276.094 44.576 276.579 42.08C277.03 39.896 277.255 38.388 277.255 37.556C277.255 37.0013 277.064 36.724 276.683 36.724C276.232 36.724 275.591 37.3133 274.759 38.492C273.927 39.636 273.095 41.1613 272.263 43.068C271.431 44.9747 270.755 46.9853 270.235 49.1C269.576 51.8733 267.947 53.26 265.347 53.26C264.307 53.26 263.614 52.896 263.267 52.168C262.955 51.4053 262.799 50.0533 262.799 48.112C262.799 47.0027 262.816 46.1187 262.851 45.46L262.903 41.3C262.903 35.9613 263.44 30.3973 264.515 24.608C265.624 18.8187 267.236 13.9653 269.351 10.048C271.5 6.096 274.066 4.12 277.047 4.12C278.642 4.12 279.924 4.81333 280.895 6.2C281.9 7.552 282.403 9.32 282.403 11.504C282.403 15.0053 281.38 18.6453 279.335 22.424C277.29 26.168 273.962 30.5533 269.351 35.58C269.247 37.3827 269.195 39.2373 269.195 41.144C270.339 38.1973 271.604 35.8053 272.991 33.968C274.412 32.096 275.799 30.7613 277.151 29.964C278.538 29.1667 279.803 28.768 280.947 28.768C283.2 28.768 284.327 29.8947 284.327 32.148C284.327 33.5 283.946 35.944 283.183 39.48C282.524 42.496 282.195 44.4893 282.195 45.46C282.195 46.8467 282.698 47.54 283.703 47.54C284.396 47.54 285.211 47.124 286.147 46.292C287.118 45.4253 288.4 44.0387 289.995 42.132C290.411 41.6467 290.879 41.404 291.399 41.404ZM275.955 9.268C275.331 9.268 274.638 10.1693 273.875 11.972C273.112 13.74 272.367 16.1493 271.639 19.2C270.946 22.216 270.374 25.5093 269.923 29.08C272.072 26.5493 273.84 23.7933 275.227 20.812C276.648 17.8307 277.359 15.1267 277.359 12.7C277.359 11.5907 277.238 10.7413 276.995 10.152C276.752 9.56266 276.406 9.268 275.955 9.268Z"/>
<path d="M295.037 53.26C292.887 53.26 291.171 52.48 289.889 50.92C288.606 49.36 287.965 47.3147 287.965 44.784C287.965 42.0107 288.606 39.3933 289.889 36.932C291.171 34.436 292.87 32.4427 294.985 30.952C297.134 29.4267 299.405 28.664 301.797 28.664C302.559 28.664 303.062 28.82 303.305 29.132C303.582 29.4093 303.807 29.9293 303.981 30.692C304.709 30.5533 305.471 30.484 306.269 30.484C307.967 30.484 308.817 31.0907 308.817 32.304C308.817 33.032 308.557 34.7653 308.037 37.504C307.239 41.4907 306.841 44.264 306.841 45.824C306.841 46.344 306.962 46.76 307.205 47.072C307.482 47.384 307.829 47.54 308.245 47.54C308.903 47.54 309.701 47.124 310.637 46.292C311.573 45.4253 312.838 44.0387 314.433 42.132C314.849 41.6467 315.317 41.404 315.837 41.404C316.287 41.404 316.634 41.612 316.877 42.028C317.154 42.444 317.293 43.016 317.293 43.744C317.293 45.1307 316.963 46.2053 316.305 46.968C314.883 48.736 313.375 50.2267 311.781 51.44C310.186 52.6533 308.643 53.26 307.153 53.26C306.009 53.26 304.951 52.8787 303.981 52.116C303.045 51.3187 302.334 50.244 301.849 48.892C300.046 51.804 297.775 53.26 295.037 53.26ZM296.909 48.008C297.671 48.008 298.399 47.5573 299.093 46.656C299.786 45.7547 300.289 44.5587 300.601 43.068L302.525 33.5C301.069 33.5347 299.717 34.0893 298.469 35.164C297.255 36.204 296.285 37.5907 295.557 39.324C294.829 41.0573 294.465 42.8947 294.465 44.836C294.465 45.9107 294.673 46.708 295.089 47.228C295.539 47.748 296.146 48.008 296.909 48.008Z"/>
<path d="M321.646 33.708C321.577 35.4413 321.542 36.7933 321.542 37.764C321.542 40.26 321.664 42.2187 321.906 43.64C322.184 45.0267 322.617 46.032 323.206 46.656C323.83 47.2453 324.68 47.54 325.754 47.54C326.309 47.54 326.968 47.3667 327.73 47.02C328.493 46.6733 329.186 46.2227 329.81 45.668C330.192 45.3213 330.573 45.148 330.954 45.148C331.37 45.148 331.7 45.3907 331.942 45.876C332.22 46.3267 332.358 46.8813 332.358 47.54C332.358 48.1987 332.22 48.84 331.942 49.464C331.7 50.088 331.318 50.608 330.798 51.024C328.996 52.5147 326.95 53.26 324.662 53.26C321.369 53.26 318.96 51.8907 317.434 49.152C315.909 46.3787 315.146 42.7733 315.146 38.336C315.146 36.8107 315.198 35.268 315.302 33.708H313.274C312.234 33.708 311.524 33.5173 311.142 33.136C310.796 32.7547 310.622 32.148 310.622 31.316C310.622 29.3747 311.402 28.404 312.962 28.404H315.926C316.516 24.5907 317.417 21.1067 318.63 17.952C319.844 14.7973 321.3 12.284 322.998 10.412C324.732 8.54 326.586 7.604 328.562 7.604C330.018 7.604 331.162 8.24533 331.994 9.528C332.826 10.8107 333.242 12.4227 333.242 14.364C333.242 19.7373 330.989 24.4173 326.482 28.404H332.306C332.861 28.404 333.26 28.5253 333.502 28.768C333.745 29.0107 333.866 29.4613 333.866 30.12C333.866 32.512 331.908 33.708 327.99 33.708H321.646ZM327.158 12.596C326.638 12.596 326.049 13.2547 325.39 14.572C324.766 15.8547 324.16 17.6573 323.57 19.98C323.016 22.268 322.548 24.816 322.166 27.624C324.212 25.856 325.737 23.88 326.742 21.696C327.782 19.4773 328.302 17.4667 328.302 15.664C328.302 13.6187 327.921 12.596 327.158 12.596Z"/>
</mask>
<path d="M23.9532 53.416C19.3426 53.416 15.6506 52.5493 12.8772 50.816C10.1039 49.048 8.71722 46.3613 8.71722 42.756C8.71722 40.8493 9.04656 39.3933 9.70522 38.388C10.3639 37.3827 11.3346 36.88 12.6172 36.88C13.5532 36.88 14.3159 37.1227 14.9052 37.608C15.4946 38.0933 15.7892 38.7173 15.7892 39.48C15.7892 40.1733 15.7372 40.78 15.6332 41.3C15.6332 41.4387 15.5986 41.6813 15.5292 42.028C15.4946 42.3747 15.4772 42.7387 15.4772 43.12C15.4772 44.68 16.2572 45.8413 17.8172 46.604C19.4119 47.3667 21.6306 47.748 24.4732 47.748C27.4199 47.748 29.7252 47.228 31.3892 46.188C33.0532 45.1133 33.8852 43.6227 33.8852 41.716C33.8852 40.5373 33.5039 39.532 32.7412 38.7C31.9786 37.8333 31.0252 37.1227 29.8812 36.568C28.7372 35.9787 27.1252 35.268 25.0452 34.436C22.3759 33.396 20.1919 32.408 18.4932 31.472C16.8292 30.536 15.3906 29.2707 14.1772 27.676C12.9986 26.0467 12.4092 24.036 12.4092 21.644C12.4092 19.148 13.0679 16.9293 14.3852 14.988C15.7372 13.0467 17.6612 11.5387 20.1572 10.464C22.6879 9.38933 25.6519 8.852 29.0492 8.852C31.5799 8.852 33.9026 9.23333 36.0172 9.996C38.1319 10.724 39.8132 11.8507 41.0612 13.376C42.3439 14.9013 42.9852 16.7733 42.9852 18.992C42.9852 21.176 42.6559 22.8227 41.9972 23.932C41.3386 25.0413 40.3679 25.596 39.0852 25.596C38.1839 25.596 37.4212 25.3187 36.7972 24.764C36.2079 24.2093 35.9132 23.5507 35.9132 22.788C35.9132 22.1293 35.9652 21.5227 36.0692 20.968C36.1732 19.928 36.2252 19.2693 36.2252 18.992C36.2252 17.536 35.5146 16.4267 34.0932 15.664C32.6719 14.9013 30.9039 14.52 28.7892 14.52C25.8079 14.52 23.5199 15.0747 21.9252 16.184C20.3652 17.2587 19.5852 18.784 19.5852 20.76C19.5852 22.0773 19.9839 23.204 20.7812 24.14C21.6132 25.076 22.6359 25.856 23.8492 26.48C25.0626 27.104 26.7612 27.8493 28.9452 28.716C31.5799 29.7907 33.6946 30.7613 35.2892 31.628C36.8839 32.4947 38.2359 33.6733 39.3452 35.164C40.4892 36.6547 41.0612 38.492 41.0612 40.676C41.0612 44.7667 39.5012 47.9213 36.3812 50.14C33.2959 52.324 29.1532 53.416 23.9532 53.416Z" fill="white"/>
<path d="M68.1841 41.404C68.6348 41.404 68.9814 41.612 69.2241 42.028C69.5014 42.444 69.6401 43.016 69.6401 43.744C69.6401 45.1307 69.3108 46.2053 68.6521 46.968C67.1614 48.8053 65.5321 50.3133 63.7641 51.492C61.9961 52.6707 59.9681 53.26 57.6801 53.26C50.6081 53.26 47.0721 48.2853 47.0721 38.336C47.0721 36.8107 47.1241 35.268 47.2281 33.708H45.2001C44.1601 33.708 43.4494 33.5173 43.0681 33.136C42.7214 32.7547 42.5481 32.148 42.5481 31.316C42.5481 29.3747 43.3281 28.404 44.8881 28.404H47.8521C48.4414 24.5907 49.3428 21.1067 50.5561 17.952C51.7694 14.7973 53.2254 12.284 54.9241 10.412C56.6574 8.54 58.5121 7.604 60.4881 7.604C61.9441 7.604 63.0881 8.24533 63.9201 9.528C64.7521 10.8107 65.1681 12.4227 65.1681 14.364C65.1681 19.7373 62.9148 24.4173 58.4081 28.404H64.2321C64.7868 28.404 65.1854 28.5253 65.4281 28.768C65.6708 29.0107 65.7921 29.4613 65.7921 30.12C65.7921 32.512 63.8334 33.708 59.9161 33.708H53.5721C53.5028 35.4413 53.4681 36.7933 53.4681 37.764C53.4681 41.3693 53.8841 43.9 54.7161 45.356C55.5828 46.812 56.9348 47.54 58.7721 47.54C60.2628 47.54 61.5801 47.0893 62.7241 46.188C63.8681 45.2867 65.2201 43.9347 66.7801 42.132C67.1961 41.6467 67.6641 41.404 68.1841 41.404ZM59.0841 12.596C58.5641 12.596 57.9748 13.2547 57.3161 14.572C56.6921 15.8547 56.0854 17.6573 55.4961 19.98C54.9414 22.268 54.4734 24.816 54.0921 27.624C56.1374 25.856 57.6628 23.88 58.6681 21.696C59.7081 19.4773 60.2281 17.4667 60.2281 15.664C60.2281 13.6187 59.8468 12.596 59.0841 12.596Z" fill="white"/>
<path d="M69.0982 53.26C67.7808 53.26 66.8448 52.5667 66.2902 51.18C65.7702 49.7933 65.5102 47.5747 65.5102 44.524C65.5102 40.0173 66.1515 35.736 67.4342 31.68C67.7462 30.6747 68.2488 29.9467 68.9422 29.496C69.6702 29.0107 70.6755 28.768 71.9582 28.768C72.6515 28.768 73.1368 28.8547 73.4142 29.028C73.6915 29.2013 73.8302 29.5307 73.8302 30.016C73.8302 30.5707 73.5702 31.8187 73.0502 33.76C72.7035 35.1467 72.4262 36.36 72.2182 37.4C72.0102 38.44 71.8368 39.7227 71.6982 41.248C72.8422 38.2667 74.1248 35.84 75.5462 33.968C76.9675 32.096 78.3542 30.7613 79.7062 29.964C81.0928 29.1667 82.3582 28.768 83.5022 28.768C85.7555 28.768 86.8822 29.8947 86.8822 32.148C86.8822 32.5987 86.7262 33.6907 86.4142 35.424C86.1368 36.8107 85.9982 37.6773 85.9982 38.024C85.9982 39.2373 86.4315 39.844 87.2982 39.844C88.2688 39.844 89.5168 39.0813 91.0422 37.556C91.4928 37.1053 91.9608 36.88 92.4462 36.88C92.8968 36.88 93.2435 37.088 93.4862 37.504C93.7635 37.8853 93.9022 38.4053 93.9022 39.064C93.9022 40.3467 93.5555 41.352 92.8622 42.08C91.8915 43.0853 90.7475 43.952 89.4302 44.68C88.1475 45.3733 86.7782 45.72 85.3222 45.72C83.4848 45.72 82.0808 45.252 81.1102 44.316C80.1742 43.38 79.7062 42.1147 79.7062 40.52C79.7062 40 79.7582 39.48 79.8622 38.96C79.9315 38.2667 79.9662 37.7987 79.9662 37.556C79.9662 37.0013 79.7755 36.724 79.3942 36.724C78.8742 36.724 78.1808 37.3133 77.3142 38.492C76.4822 39.636 75.6502 41.1613 74.8182 43.068C73.9862 44.9747 73.3102 46.9853 72.7902 49.1C72.4088 50.7293 71.9582 51.8387 71.4382 52.428C70.9528 52.9827 70.1728 53.26 69.0982 53.26Z" fill="white"/>
<path d="M95.4662 53.26C93.3169 53.26 91.6009 52.48 90.3182 50.92C89.0356 49.36 88.3942 47.3147 88.3942 44.784C88.3942 42.0107 89.0356 39.3933 90.3182 36.932C91.6009 34.436 93.2996 32.4427 95.4142 30.952C97.5636 29.4267 99.8342 28.664 102.226 28.664C102.989 28.664 103.492 28.82 103.734 29.132C104.012 29.4093 104.237 29.9293 104.41 30.692C105.138 30.5533 105.901 30.484 106.698 30.484C108.397 30.484 109.246 31.0907 109.246 32.304C109.246 33.032 108.986 34.7653 108.466 37.504C107.669 41.4907 107.27 44.264 107.27 45.824C107.27 46.344 107.392 46.76 107.634 47.072C107.912 47.384 108.258 47.54 108.674 47.54C109.333 47.54 110.13 47.124 111.066 46.292C112.002 45.4253 113.268 44.0387 114.862 42.132C115.278 41.6467 115.746 41.404 116.266 41.404C116.717 41.404 117.064 41.612 117.306 42.028C117.584 42.444 117.722 43.016 117.722 43.744C117.722 45.1307 117.393 46.2053 116.734 46.968C115.313 48.736 113.805 50.2267 112.21 51.44C110.616 52.6533 109.073 53.26 107.582 53.26C106.438 53.26 105.381 52.8787 104.41 52.116C103.474 51.3187 102.764 50.244 102.278 48.892C100.476 51.804 98.2049 53.26 95.4662 53.26ZM97.3382 48.008C98.1009 48.008 98.8289 47.5573 99.5222 46.656C100.216 45.7547 100.718 44.5587 101.03 43.068L102.954 33.5C101.498 33.5347 100.146 34.0893 98.8982 35.164C97.6849 36.204 96.7142 37.5907 95.9862 39.324C95.2582 41.0573 94.8942 42.8947 94.8942 44.836C94.8942 45.9107 95.1022 46.708 95.5182 47.228C95.9689 47.748 96.5756 48.008 97.3382 48.008Z" fill="white"/>
<path d="M117.188 53.26C115.871 53.26 114.935 52.5667 114.38 51.18C113.86 49.7933 113.6 47.5747 113.6 44.524C113.6 40.0173 114.241 35.736 115.524 31.68C115.836 30.6747 116.339 29.9467 117.032 29.496C117.76 29.0107 118.765 28.768 120.048 28.768C120.741 28.768 121.227 28.8547 121.504 29.028C121.781 29.2013 121.92 29.5307 121.92 30.016C121.92 30.5707 121.66 31.8187 121.14 33.76C120.793 35.1467 120.516 36.36 120.308 37.4C120.1 38.44 119.927 39.7227 119.788 41.248C120.932 38.2667 122.215 35.84 123.636 33.968C125.057 32.096 126.444 30.7613 127.796 29.964C129.183 29.1667 130.448 28.768 131.592 28.768C133.845 28.768 134.972 29.8947 134.972 32.148C134.972 33.5 134.591 35.944 133.828 39.48C133.169 42.496 132.84 44.4893 132.84 45.46C132.84 46.8467 133.343 47.54 134.348 47.54C135.041 47.54 135.856 47.124 136.792 46.292C137.763 45.4253 139.045 44.0387 140.64 42.132C141.056 41.6467 141.524 41.404 142.044 41.404C142.495 41.404 142.841 41.612 143.084 42.028C143.361 42.444 143.5 43.016 143.5 43.744C143.5 45.1307 143.171 46.2053 142.512 46.968C141.021 48.8053 139.409 50.3133 137.676 51.492C135.977 52.6707 134.036 53.26 131.852 53.26C130.084 53.26 128.749 52.7573 127.848 51.752C126.947 50.712 126.496 49.2213 126.496 47.28C126.496 46.3093 126.739 44.576 127.224 42.08C127.675 39.896 127.9 38.388 127.9 37.556C127.9 37.0013 127.709 36.724 127.328 36.724C126.877 36.724 126.236 37.3133 125.404 38.492C124.607 39.636 123.775 41.1613 122.908 43.068C122.076 44.9747 121.4 46.9853 120.88 49.1C120.499 50.7293 120.048 51.8387 119.528 52.428C119.043 52.9827 118.263 53.26 117.188 53.26Z" fill="white"/>
<path d="M165.917 41.508C166.368 41.508 166.714 41.7333 166.957 42.184C167.234 42.6 167.373 43.1373 167.373 43.796C167.373 44.5933 167.252 45.2173 167.009 45.668C166.766 46.1187 166.385 46.5173 165.865 46.864C162.884 48.8747 160.7 50.3653 159.313 51.336L155.985 53.572C154.668 60.748 152.934 66.3813 150.785 70.472C148.67 74.5973 145.966 76.66 142.673 76.66C140.905 76.66 139.466 76.1053 138.357 74.996C137.248 73.9213 136.693 72.5 136.693 70.732C136.693 68.2707 137.664 65.6187 139.605 62.776C141.546 59.968 145.186 56.5013 150.525 52.376L150.837 50.348C150.248 51.284 149.468 52.012 148.497 52.532C147.561 53.0173 146.625 53.26 145.689 53.26C143.54 53.26 141.824 52.48 140.541 50.92C139.258 49.36 138.617 47.3147 138.617 44.784C138.617 42.0107 139.258 39.3933 140.541 36.932C141.824 34.436 143.522 32.4427 145.637 30.952C147.786 29.4267 150.057 28.664 152.449 28.664C153.212 28.664 153.714 28.82 153.957 29.132C154.234 29.4093 154.46 29.9293 154.633 30.692C155.292 30.5533 156.054 30.484 156.921 30.484C157.788 30.484 158.394 30.6227 158.741 30.9C159.122 31.1427 159.313 31.6453 159.313 32.408C159.313 32.824 159.296 33.1533 159.261 33.396C159.122 34.4707 158.689 37.192 157.961 41.56C157.822 42.392 157.666 43.3107 157.493 44.316C157.354 45.2867 157.198 46.3267 157.025 47.436C159.694 45.356 162.26 43.5187 164.721 41.924C165.172 41.6467 165.57 41.508 165.917 41.508ZM147.561 48.008C148.358 48.008 149.121 47.5227 149.849 46.552C150.577 45.5813 151.097 44.1947 151.409 42.392L153.073 33.5C151.652 33.5347 150.334 34.0893 149.121 35.164C147.908 36.204 146.937 37.5907 146.209 39.324C145.481 41.0573 145.117 42.8947 145.117 44.836C145.117 45.9107 145.325 46.708 145.741 47.228C146.192 47.748 146.798 48.008 147.561 48.008ZM143.245 71.616C144.112 71.616 145.082 70.576 146.157 68.496C147.266 66.416 148.324 63.1053 149.329 58.564C146.66 60.852 144.736 62.9147 143.557 64.752C142.378 66.5893 141.789 68.2013 141.789 69.588C141.789 70.1773 141.893 70.6627 142.101 71.044C142.344 71.4253 142.725 71.616 143.245 71.616Z" fill="white"/>
<path d="M187.368 41.404C187.818 41.404 188.165 41.612 188.408 42.028C188.685 42.444 188.824 43.016 188.824 43.744C188.824 45.1307 188.494 46.2053 187.836 46.968C186.553 48.528 184.733 49.9667 182.376 51.284C180.053 52.6013 177.557 53.26 174.888 53.26C171.248 53.26 168.422 52.272 166.412 50.296C164.401 48.32 163.396 45.616 163.396 42.184C163.396 39.792 163.898 37.5733 164.904 35.528C165.909 33.448 167.296 31.8013 169.064 30.588C170.866 29.3747 172.894 28.768 175.148 28.768C177.158 28.768 178.77 29.3747 179.984 30.588C181.197 31.7667 181.804 33.3787 181.804 35.424C181.804 37.816 180.937 39.8787 179.204 41.612C177.505 43.3107 174.61 44.6627 170.52 45.668C171.386 47.2627 173.033 48.06 175.46 48.06C177.02 48.06 178.788 47.5227 180.764 46.448C182.774 45.3387 184.508 43.9 185.964 42.132C186.38 41.6467 186.848 41.404 187.368 41.404ZM174.264 33.864C172.981 33.864 171.889 34.6093 170.988 36.1C170.121 37.5907 169.688 39.3933 169.688 41.508V41.612C171.733 41.1267 173.345 40.3987 174.524 39.428C175.702 38.4573 176.292 37.3307 176.292 36.048C176.292 35.3893 176.101 34.8693 175.72 34.488C175.373 34.072 174.888 33.864 174.264 33.864Z" fill="white"/>
<path d="M205.598 35.892C206.36 35.892 207.002 36.1693 207.522 36.724C208.076 37.244 208.354 37.9027 208.354 38.7C208.354 39.1507 208.25 39.636 208.042 40.156C207.487 41.4387 206.707 42.5133 205.702 43.38C204.696 44.2467 203.587 44.68 202.374 44.68C201.403 44.68 200.571 44.3333 199.878 43.64C199.219 42.9467 198.89 42.0107 198.89 40.832C198.89 40.1733 198.924 39.4627 198.994 38.7C199.063 38.1453 199.098 37.764 199.098 37.556C199.098 37.2787 199.028 37.0707 198.89 36.932C198.786 36.7933 198.647 36.724 198.474 36.724C197.988 36.724 197.33 37.3133 196.498 38.492C195.666 39.636 194.834 41.1613 194.002 43.068C193.17 44.9747 192.494 46.9853 191.974 49.1C191.592 50.764 191.159 51.8733 190.674 52.428C190.188 52.9827 189.391 53.26 188.282 53.26C186.964 53.26 186.028 52.5667 185.474 51.18C184.954 49.7933 184.694 47.5747 184.694 44.524C184.694 40.0173 185.335 35.736 186.618 31.68C186.93 30.6747 187.432 29.9467 188.126 29.496C188.854 29.0107 189.859 28.768 191.142 28.768C191.835 28.768 192.32 28.8547 192.598 29.028C192.875 29.2013 193.014 29.5307 193.014 30.016C193.014 30.5707 192.754 31.8187 192.234 33.76C191.887 35.1467 191.61 36.36 191.402 37.4C191.194 38.44 191.02 39.7227 190.882 41.248C192.026 38.2667 193.308 35.84 194.73 33.968C196.151 32.096 197.538 30.7613 198.89 29.964C200.242 29.1667 201.472 28.768 202.582 28.768C203.587 28.768 204.35 29.0627 204.87 29.652C205.424 30.2067 205.702 31.0387 205.702 32.148C205.702 32.8067 205.511 34.0547 205.13 35.892H205.598Z" fill="white"/>
<path d="M218.688 54.404C216.885 54.404 215.498 53.988 214.528 53.156C213.592 52.324 213.124 51.388 213.124 50.348C213.124 49.4467 213.453 48.6667 214.112 48.008C214.77 47.3493 215.741 47.02 217.024 47.02C217.474 47.02 217.994 47.072 218.584 47.176C219.208 47.2453 219.676 47.2973 219.988 47.332C219.953 46.4307 219.745 45.5813 219.364 44.784C219.017 43.9867 218.566 43.224 218.012 42.496C217.457 41.7333 216.937 41.0747 216.452 40.52C215.377 42.5653 214.302 44.264 213.228 45.616C212.188 46.968 211.044 48.2507 209.796 49.464C209.172 50.088 208.513 50.4 207.82 50.4C207.265 50.4 206.814 50.2093 206.468 49.828C206.121 49.412 205.948 48.9093 205.948 48.32C205.948 47.6267 206.19 46.9853 206.676 46.396L207.352 45.564C209.258 43.2067 210.697 41.2653 211.668 39.74C212.292 38.7347 212.916 37.5387 213.54 36.152C214.198 34.7653 215.048 32.876 216.088 30.484C216.746 28.9587 218.116 28.196 220.196 28.196C221.166 28.196 221.842 28.2827 222.224 28.456C222.605 28.6293 222.796 28.9067 222.796 29.288C222.796 29.496 222.726 29.8253 222.588 30.276C222.449 30.7267 222.258 31.1773 222.016 31.628C221.392 32.876 221.08 33.9333 221.08 34.8C221.08 35.32 221.253 35.892 221.6 36.516C221.981 37.14 222.553 37.92 223.316 38.856C224.425 40.312 225.257 41.56 225.812 42.6C226.401 43.6053 226.696 44.7147 226.696 45.928C226.696 47.384 226.349 48.7707 225.656 50.088C224.997 51.3707 224.061 52.4107 222.848 53.208C221.634 54.0053 220.248 54.404 218.688 54.404Z" fill="white"/>
<path d="M234.643 53.26C233.117 53.26 231.956 52.844 231.159 52.012C230.396 51.18 230.015 50.088 230.015 48.736C230.015 47.176 230.448 45.928 231.315 44.992C232.216 44.056 233.464 43.588 235.059 43.588C236.584 43.588 237.728 43.9693 238.491 44.732C239.288 45.46 239.687 46.552 239.687 48.008C239.687 49.6027 239.236 50.8853 238.335 51.856C237.433 52.792 236.203 53.26 234.643 53.26Z" fill="white"/>
<path d="M253.326 53.26C249.929 53.26 247.277 52.3067 245.37 50.4C243.498 48.4587 242.562 45.9107 242.562 42.756C242.562 39.948 243.117 37.4867 244.226 35.372C245.336 33.2573 246.774 31.628 248.542 30.484C250.31 29.34 252.165 28.768 254.106 28.768C256.013 28.768 257.486 29.34 258.526 30.484C259.601 31.5933 260.138 33.032 260.138 34.8C260.138 36.256 259.809 37.4867 259.15 38.492C258.526 39.4973 257.694 40 256.654 40C255.996 40 255.458 39.844 255.042 39.532C254.661 39.22 254.47 38.7867 254.47 38.232C254.47 37.9893 254.505 37.712 254.574 37.4C254.644 37.088 254.696 36.8627 254.73 36.724C254.904 36.204 254.99 35.7187 254.99 35.268C254.99 34.8173 254.869 34.4707 254.626 34.228C254.418 33.9853 254.106 33.864 253.69 33.864C252.893 33.864 252.148 34.228 251.454 34.956C250.761 35.6493 250.206 36.6027 249.79 37.816C249.374 39.0293 249.166 40.364 249.166 41.82C249.166 45.8413 250.917 47.852 254.418 47.852C255.84 47.852 257.365 47.384 258.994 46.448C260.658 45.4773 262.288 44.0387 263.882 42.132C264.298 41.6467 264.766 41.404 265.286 41.404C265.737 41.404 266.084 41.612 266.326 42.028C266.604 42.444 266.742 43.016 266.742 43.744C266.742 45.0613 266.413 46.136 265.754 46.968C264.125 48.9787 262.166 50.5387 259.878 51.648C257.625 52.7227 255.441 53.26 253.326 53.26Z" fill="white"/>
<path d="M291.399 41.404C291.85 41.404 292.196 41.612 292.439 42.028C292.716 42.444 292.855 43.016 292.855 43.744C292.855 45.1307 292.526 46.2053 291.867 46.968C290.272 48.8053 288.626 50.3133 286.927 51.492C285.263 52.6707 283.356 53.26 281.207 53.26C279.439 53.26 278.104 52.7573 277.203 51.752C276.302 50.712 275.851 49.2213 275.851 47.28C275.851 46.3093 276.094 44.576 276.579 42.08C277.03 39.896 277.255 38.388 277.255 37.556C277.255 37.0013 277.064 36.724 276.683 36.724C276.232 36.724 275.591 37.3133 274.759 38.492C273.927 39.636 273.095 41.1613 272.263 43.068C271.431 44.9747 270.755 46.9853 270.235 49.1C269.576 51.8733 267.947 53.26 265.347 53.26C264.307 53.26 263.614 52.896 263.267 52.168C262.955 51.4053 262.799 50.0533 262.799 48.112C262.799 47.0027 262.816 46.1187 262.851 45.46L262.903 41.3C262.903 35.9613 263.44 30.3973 264.515 24.608C265.624 18.8187 267.236 13.9653 269.351 10.048C271.5 6.096 274.066 4.12 277.047 4.12C278.642 4.12 279.924 4.81333 280.895 6.2C281.9 7.552 282.403 9.32 282.403 11.504C282.403 15.0053 281.38 18.6453 279.335 22.424C277.29 26.168 273.962 30.5533 269.351 35.58C269.247 37.3827 269.195 39.2373 269.195 41.144C270.339 38.1973 271.604 35.8053 272.991 33.968C274.412 32.096 275.799 30.7613 277.151 29.964C278.538 29.1667 279.803 28.768 280.947 28.768C283.2 28.768 284.327 29.8947 284.327 32.148C284.327 33.5 283.946 35.944 283.183 39.48C282.524 42.496 282.195 44.4893 282.195 45.46C282.195 46.8467 282.698 47.54 283.703 47.54C284.396 47.54 285.211 47.124 286.147 46.292C287.118 45.4253 288.4 44.0387 289.995 42.132C290.411 41.6467 290.879 41.404 291.399 41.404ZM275.955 9.268C275.331 9.268 274.638 10.1693 273.875 11.972C273.112 13.74 272.367 16.1493 271.639 19.2C270.946 22.216 270.374 25.5093 269.923 29.08C272.072 26.5493 273.84 23.7933 275.227 20.812C276.648 17.8307 277.359 15.1267 277.359 12.7C277.359 11.5907 277.238 10.7413 276.995 10.152C276.752 9.56266 276.406 9.268 275.955 9.268Z" fill="white"/>
<path d="M295.037 53.26C292.887 53.26 291.171 52.48 289.889 50.92C288.606 49.36 287.965 47.3147 287.965 44.784C287.965 42.0107 288.606 39.3933 289.889 36.932C291.171 34.436 292.87 32.4427 294.985 30.952C297.134 29.4267 299.405 28.664 301.797 28.664C302.559 28.664 303.062 28.82 303.305 29.132C303.582 29.4093 303.807 29.9293 303.981 30.692C304.709 30.5533 305.471 30.484 306.269 30.484C307.967 30.484 308.817 31.0907 308.817 32.304C308.817 33.032 308.557 34.7653 308.037 37.504C307.239 41.4907 306.841 44.264 306.841 45.824C306.841 46.344 306.962 46.76 307.205 47.072C307.482 47.384 307.829 47.54 308.245 47.54C308.903 47.54 309.701 47.124 310.637 46.292C311.573 45.4253 312.838 44.0387 314.433 42.132C314.849 41.6467 315.317 41.404 315.837 41.404C316.287 41.404 316.634 41.612 316.877 42.028C317.154 42.444 317.293 43.016 317.293 43.744C317.293 45.1307 316.963 46.2053 316.305 46.968C314.883 48.736 313.375 50.2267 311.781 51.44C310.186 52.6533 308.643 53.26 307.153 53.26C306.009 53.26 304.951 52.8787 303.981 52.116C303.045 51.3187 302.334 50.244 301.849 48.892C300.046 51.804 297.775 53.26 295.037 53.26ZM296.909 48.008C297.671 48.008 298.399 47.5573 299.093 46.656C299.786 45.7547 300.289 44.5587 300.601 43.068L302.525 33.5C301.069 33.5347 299.717 34.0893 298.469 35.164C297.255 36.204 296.285 37.5907 295.557 39.324C294.829 41.0573 294.465 42.8947 294.465 44.836C294.465 45.9107 294.673 46.708 295.089 47.228C295.539 47.748 296.146 48.008 296.909 48.008Z" fill="white"/>
<path d="M321.646 33.708C321.577 35.4413 321.542 36.7933 321.542 37.764C321.542 40.26 321.664 42.2187 321.906 43.64C322.184 45.0267 322.617 46.032 323.206 46.656C323.83 47.2453 324.68 47.54 325.754 47.54C326.309 47.54 326.968 47.3667 327.73 47.02C328.493 46.6733 329.186 46.2227 329.81 45.668C330.192 45.3213 330.573 45.148 330.954 45.148C331.37 45.148 331.7 45.3907 331.942 45.876C332.22 46.3267 332.358 46.8813 332.358 47.54C332.358 48.1987 332.22 48.84 331.942 49.464C331.7 50.088 331.318 50.608 330.798 51.024C328.996 52.5147 326.95 53.26 324.662 53.26C321.369 53.26 318.96 51.8907 317.434 49.152C315.909 46.3787 315.146 42.7733 315.146 38.336C315.146 36.8107 315.198 35.268 315.302 33.708H313.274C312.234 33.708 311.524 33.5173 311.142 33.136C310.796 32.7547 310.622 32.148 310.622 31.316C310.622 29.3747 311.402 28.404 312.962 28.404H315.926C316.516 24.5907 317.417 21.1067 318.63 17.952C319.844 14.7973 321.3 12.284 322.998 10.412C324.732 8.54 326.586 7.604 328.562 7.604C330.018 7.604 331.162 8.24533 331.994 9.528C332.826 10.8107 333.242 12.4227 333.242 14.364C333.242 19.7373 330.989 24.4173 326.482 28.404H332.306C332.861 28.404 333.26 28.5253 333.502 28.768C333.745 29.0107 333.866 29.4613 333.866 30.12C333.866 32.512 331.908 33.708 327.99 33.708H321.646ZM327.158 12.596C326.638 12.596 326.049 13.2547 325.39 14.572C324.766 15.8547 324.16 17.6573 323.57 19.98C323.016 22.268 322.548 24.816 322.166 27.624C324.212 25.856 325.737 23.88 326.742 21.696C327.782 19.4773 328.302 17.4667 328.302 15.664C328.302 13.6187 327.921 12.596 327.158 12.596Z" fill="white"/>
<path d="M23.9532 53.416C19.3426 53.416 15.6506 52.5493 12.8772 50.816C10.1039 49.048 8.71722 46.3613 8.71722 42.756C8.71722 40.8493 9.04656 39.3933 9.70522 38.388C10.3639 37.3827 11.3346 36.88 12.6172 36.88C13.5532 36.88 14.3159 37.1227 14.9052 37.608C15.4946 38.0933 15.7892 38.7173 15.7892 39.48C15.7892 40.1733 15.7372 40.78 15.6332 41.3C15.6332 41.4387 15.5986 41.6813 15.5292 42.028C15.4946 42.3747 15.4772 42.7387 15.4772 43.12C15.4772 44.68 16.2572 45.8413 17.8172 46.604C19.4119 47.3667 21.6306 47.748 24.4732 47.748C27.4199 47.748 29.7252 47.228 31.3892 46.188C33.0532 45.1133 33.8852 43.6227 33.8852 41.716C33.8852 40.5373 33.5039 39.532 32.7412 38.7C31.9786 37.8333 31.0252 37.1227 29.8812 36.568C28.7372 35.9787 27.1252 35.268 25.0452 34.436C22.3759 33.396 20.1919 32.408 18.4932 31.472C16.8292 30.536 15.3906 29.2707 14.1772 27.676C12.9986 26.0467 12.4092 24.036 12.4092 21.644C12.4092 19.148 13.0679 16.9293 14.3852 14.988C15.7372 13.0467 17.6612 11.5387 20.1572 10.464C22.6879 9.38933 25.6519 8.852 29.0492 8.852C31.5799 8.852 33.9026 9.23333 36.0172 9.996C38.1319 10.724 39.8132 11.8507 41.0612 13.376C42.3439 14.9013 42.9852 16.7733 42.9852 18.992C42.9852 21.176 42.6559 22.8227 41.9972 23.932C41.3386 25.0413 40.3679 25.596 39.0852 25.596C38.1839 25.596 37.4212 25.3187 36.7972 24.764C36.2079 24.2093 35.9132 23.5507 35.9132 22.788C35.9132 22.1293 35.9652 21.5227 36.0692 20.968C36.1732 19.928 36.2252 19.2693 36.2252 18.992C36.2252 17.536 35.5146 16.4267 34.0932 15.664C32.6719 14.9013 30.9039 14.52 28.7892 14.52C25.8079 14.52 23.5199 15.0747 21.9252 16.184C20.3652 17.2587 19.5852 18.784 19.5852 20.76C19.5852 22.0773 19.9839 23.204 20.7812 24.14C21.6132 25.076 22.6359 25.856 23.8492 26.48C25.0626 27.104 26.7612 27.8493 28.9452 28.716C31.5799 29.7907 33.6946 30.7613 35.2892 31.628C36.8839 32.4947 38.2359 33.6733 39.3452 35.164C40.4892 36.6547 41.0612 38.492 41.0612 40.676C41.0612 44.7667 39.5012 47.9213 36.3812 50.14C33.2959 52.324 29.1532 53.416 23.9532 53.416Z" stroke="black" stroke-width="8" mask="url(#path-1-outside-1_13_8)"/>
<path d="M68.1841 41.404C68.6348 41.404 68.9814 41.612 69.2241 42.028C69.5014 42.444 69.6401 43.016 69.6401 43.744C69.6401 45.1307 69.3108 46.2053 68.6521 46.968C67.1614 48.8053 65.5321 50.3133 63.7641 51.492C61.9961 52.6707 59.9681 53.26 57.6801 53.26C50.6081 53.26 47.0721 48.2853 47.0721 38.336C47.0721 36.8107 47.1241 35.268 47.2281 33.708H45.2001C44.1601 33.708 43.4494 33.5173 43.0681 33.136C42.7214 32.7547 42.5481 32.148 42.5481 31.316C42.5481 29.3747 43.3281 28.404 44.8881 28.404H47.8521C48.4414 24.5907 49.3428 21.1067 50.5561 17.952C51.7694 14.7973 53.2254 12.284 54.9241 10.412C56.6574 8.54 58.5121 7.604 60.4881 7.604C61.9441 7.604 63.0881 8.24533 63.9201 9.528C64.7521 10.8107 65.1681 12.4227 65.1681 14.364C65.1681 19.7373 62.9148 24.4173 58.4081 28.404H64.2321C64.7868 28.404 65.1854 28.5253 65.4281 28.768C65.6708 29.0107 65.7921 29.4613 65.7921 30.12C65.7921 32.512 63.8334 33.708 59.9161 33.708H53.5721C53.5028 35.4413 53.4681 36.7933 53.4681 37.764C53.4681 41.3693 53.8841 43.9 54.7161 45.356C55.5828 46.812 56.9348 47.54 58.7721 47.54C60.2628 47.54 61.5801 47.0893 62.7241 46.188C63.8681 45.2867 65.2201 43.9347 66.7801 42.132C67.1961 41.6467 67.6641 41.404 68.1841 41.404ZM59.0841 12.596C58.5641 12.596 57.9748 13.2547 57.3161 14.572C56.6921 15.8547 56.0854 17.6573 55.4961 19.98C54.9414 22.268 54.4734 24.816 54.0921 27.624C56.1374 25.856 57.6628 23.88 58.6681 21.696C59.7081 19.4773 60.2281 17.4667 60.2281 15.664C60.2281 13.6187 59.8468 12.596 59.0841 12.596Z" stroke="black" stroke-width="8" mask="url(#path-1-outside-1_13_8)"/>
<path d="M69.0982 53.26C67.7808 53.26 66.8448 52.5667 66.2902 51.18C65.7702 49.7933 65.5102 47.5747 65.5102 44.524C65.5102 40.0173 66.1515 35.736 67.4342 31.68C67.7462 30.6747 68.2488 29.9467 68.9422 29.496C69.6702 29.0107 70.6755 28.768 71.9582 28.768C72.6515 28.768 73.1368 28.8547 73.4142 29.028C73.6915 29.2013 73.8302 29.5307 73.8302 30.016C73.8302 30.5707 73.5702 31.8187 73.0502 33.76C72.7035 35.1467 72.4262 36.36 72.2182 37.4C72.0102 38.44 71.8368 39.7227 71.6982 41.248C72.8422 38.2667 74.1248 35.84 75.5462 33.968C76.9675 32.096 78.3542 30.7613 79.7062 29.964C81.0928 29.1667 82.3582 28.768 83.5022 28.768C85.7555 28.768 86.8822 29.8947 86.8822 32.148C86.8822 32.5987 86.7262 33.6907 86.4142 35.424C86.1368 36.8107 85.9982 37.6773 85.9982 38.024C85.9982 39.2373 86.4315 39.844 87.2982 39.844C88.2688 39.844 89.5168 39.0813 91.0422 37.556C91.4928 37.1053 91.9608 36.88 92.4462 36.88C92.8968 36.88 93.2435 37.088 93.4862 37.504C93.7635 37.8853 93.9022 38.4053 93.9022 39.064C93.9022 40.3467 93.5555 41.352 92.8622 42.08C91.8915 43.0853 90.7475 43.952 89.4302 44.68C88.1475 45.3733 86.7782 45.72 85.3222 45.72C83.4848 45.72 82.0808 45.252 81.1102 44.316C80.1742 43.38 79.7062 42.1147 79.7062 40.52C79.7062 40 79.7582 39.48 79.8622 38.96C79.9315 38.2667 79.9662 37.7987 79.9662 37.556C79.9662 37.0013 79.7755 36.724 79.3942 36.724C78.8742 36.724 78.1808 37.3133 77.3142 38.492C76.4822 39.636 75.6502 41.1613 74.8182 43.068C73.9862 44.9747 73.3102 46.9853 72.7902 49.1C72.4088 50.7293 71.9582 51.8387 71.4382 52.428C70.9528 52.9827 70.1728 53.26 69.0982 53.26Z" stroke="black" stroke-width="8" mask="url(#path-1-outside-1_13_8)"/>
<path d="M95.4662 53.26C93.3169 53.26 91.6009 52.48 90.3182 50.92C89.0356 49.36 88.3942 47.3147 88.3942 44.784C88.3942 42.0107 89.0356 39.3933 90.3182 36.932C91.6009 34.436 93.2996 32.4427 95.4142 30.952C97.5636 29.4267 99.8342 28.664 102.226 28.664C102.989 28.664 103.492 28.82 103.734 29.132C104.012 29.4093 104.237 29.9293 104.41 30.692C105.138 30.5533 105.901 30.484 106.698 30.484C108.397 30.484 109.246 31.0907 109.246 32.304C109.246 33.032 108.986 34.7653 108.466 37.504C107.669 41.4907 107.27 44.264 107.27 45.824C107.27 46.344 107.392 46.76 107.634 47.072C107.912 47.384 108.258 47.54 108.674 47.54C109.333 47.54 110.13 47.124 111.066 46.292C112.002 45.4253 113.268 44.0387 114.862 42.132C115.278 41.6467 115.746 41.404 116.266 41.404C116.717 41.404 117.064 41.612 117.306 42.028C117.584 42.444 117.722 43.016 117.722 43.744C117.722 45.1307 117.393 46.2053 116.734 46.968C115.313 48.736 113.805 50.2267 112.21 51.44C110.616 52.6533 109.073 53.26 107.582 53.26C106.438 53.26 105.381 52.8787 104.41 52.116C103.474 51.3187 102.764 50.244 102.278 48.892C100.476 51.804 98.2049 53.26 95.4662 53.26ZM97.3382 48.008C98.1009 48.008 98.8289 47.5573 99.5222 46.656C100.216 45.7547 100.718 44.5587 101.03 43.068L102.954 33.5C101.498 33.5347 100.146 34.0893 98.8982 35.164C97.6849 36.204 96.7142 37.5907 95.9862 39.324C95.2582 41.0573 94.8942 42.8947 94.8942 44.836C94.8942 45.9107 95.1022 46.708 95.5182 47.228C95.9689 47.748 96.5756 48.008 97.3382 48.008Z" stroke="black" stroke-width="8" mask="url(#path-1-outside-1_13_8)"/>
<path d="M117.188 53.26C115.871 53.26 114.935 52.5667 114.38 51.18C113.86 49.7933 113.6 47.5747 113.6 44.524C113.6 40.0173 114.241 35.736 115.524 31.68C115.836 30.6747 116.339 29.9467 117.032 29.496C117.76 29.0107 118.765 28.768 120.048 28.768C120.741 28.768 121.227 28.8547 121.504 29.028C121.781 29.2013 121.92 29.5307 121.92 30.016C121.92 30.5707 121.66 31.8187 121.14 33.76C120.793 35.1467 120.516 36.36 120.308 37.4C120.1 38.44 119.927 39.7227 119.788 41.248C120.932 38.2667 122.215 35.84 123.636 33.968C125.057 32.096 126.444 30.7613 127.796 29.964C129.183 29.1667 130.448 28.768 131.592 28.768C133.845 28.768 134.972 29.8947 134.972 32.148C134.972 33.5 134.591 35.944 133.828 39.48C133.169 42.496 132.84 44.4893 132.84 45.46C132.84 46.8467 133.343 47.54 134.348 47.54C135.041 47.54 135.856 47.124 136.792 46.292C137.763 45.4253 139.045 44.0387 140.64 42.132C141.056 41.6467 141.524 41.404 142.044 41.404C142.495 41.404 142.841 41.612 143.084 42.028C143.361 42.444 143.5 43.016 143.5 43.744C143.5 45.1307 143.171 46.2053 142.512 46.968C141.021 48.8053 139.409 50.3133 137.676 51.492C135.977 52.6707 134.036 53.26 131.852 53.26C130.084 53.26 128.749 52.7573 127.848 51.752C126.947 50.712 126.496 49.2213 126.496 47.28C126.496 46.3093 126.739 44.576 127.224 42.08C127.675 39.896 127.9 38.388 127.9 37.556C127.9 37.0013 127.709 36.724 127.328 36.724C126.877 36.724 126.236 37.3133 125.404 38.492C124.607 39.636 123.775 41.1613 122.908 43.068C122.076 44.9747 121.4 46.9853 120.88 49.1C120.499 50.7293 120.048 51.8387 119.528 52.428C119.043 52.9827 118.263 53.26 117.188 53.26Z" stroke="black" stroke-width="8" mask="url(#path-1-outside-1_13_8)"/>
<path d="M165.917 41.508C166.368 41.508 166.714 41.7333 166.957 42.184C167.234 42.6 167.373 43.1373 167.373 43.796C167.373 44.5933 167.252 45.2173 167.009 45.668C166.766 46.1187 166.385 46.5173 165.865 46.864C162.884 48.8747 160.7 50.3653 159.313 51.336L155.985 53.572C154.668 60.748 152.934 66.3813 150.785 70.472C148.67 74.5973 145.966 76.66 142.673 76.66C140.905 76.66 139.466 76.1053 138.357 74.996C137.248 73.9213 136.693 72.5 136.693 70.732C136.693 68.2707 137.664 65.6187 139.605 62.776C141.546 59.968 145.186 56.5013 150.525 52.376L150.837 50.348C150.248 51.284 149.468 52.012 148.497 52.532C147.561 53.0173 146.625 53.26 145.689 53.26C143.54 53.26 141.824 52.48 140.541 50.92C139.258 49.36 138.617 47.3147 138.617 44.784C138.617 42.0107 139.258 39.3933 140.541 36.932C141.824 34.436 143.522 32.4427 145.637 30.952C147.786 29.4267 150.057 28.664 152.449 28.664C153.212 28.664 153.714 28.82 153.957 29.132C154.234 29.4093 154.46 29.9293 154.633 30.692C155.292 30.5533 156.054 30.484 156.921 30.484C157.788 30.484 158.394 30.6227 158.741 30.9C159.122 31.1427 159.313 31.6453 159.313 32.408C159.313 32.824 159.296 33.1533 159.261 33.396C159.122 34.4707 158.689 37.192 157.961 41.56C157.822 42.392 157.666 43.3107 157.493 44.316C157.354 45.2867 157.198 46.3267 157.025 47.436C159.694 45.356 162.26 43.5187 164.721 41.924C165.172 41.6467 165.57 41.508 165.917 41.508ZM147.561 48.008C148.358 48.008 149.121 47.5227 149.849 46.552C150.577 45.5813 151.097 44.1947 151.409 42.392L153.073 33.5C151.652 33.5347 150.334 34.0893 149.121 35.164C147.908 36.204 146.937 37.5907 146.209 39.324C145.481 41.0573 145.117 42.8947 145.117 44.836C145.117 45.9107 145.325 46.708 145.741 47.228C146.192 47.748 146.798 48.008 147.561 48.008ZM143.245 71.616C144.112 71.616 145.082 70.576 146.157 68.496C147.266 66.416 148.324 63.1053 149.329 58.564C146.66 60.852 144.736 62.9147 143.557 64.752C142.378 66.5893 141.789 68.2013 141.789 69.588C141.789 70.1773 141.893 70.6627 142.101 71.044C142.344 71.4253 142.725 71.616 143.245 71.616Z" stroke="black" stroke-width="8" mask="url(#path-1-outside-1_13_8)"/>
<path d="M187.368 41.404C187.818 41.404 188.165 41.612 188.408 42.028C188.685 42.444 188.824 43.016 188.824 43.744C188.824 45.1307 188.494 46.2053 187.836 46.968C186.553 48.528 184.733 49.9667 182.376 51.284C180.053 52.6013 177.557 53.26 174.888 53.26C171.248 53.26 168.422 52.272 166.412 50.296C164.401 48.32 163.396 45.616 163.396 42.184C163.396 39.792 163.898 37.5733 164.904 35.528C165.909 33.448 167.296 31.8013 169.064 30.588C170.866 29.3747 172.894 28.768 175.148 28.768C177.158 28.768 178.77 29.3747 179.984 30.588C181.197 31.7667 181.804 33.3787 181.804 35.424C181.804 37.816 180.937 39.8787 179.204 41.612C177.505 43.3107 174.61 44.6627 170.52 45.668C171.386 47.2627 173.033 48.06 175.46 48.06C177.02 48.06 178.788 47.5227 180.764 46.448C182.774 45.3387 184.508 43.9 185.964 42.132C186.38 41.6467 186.848 41.404 187.368 41.404ZM174.264 33.864C172.981 33.864 171.889 34.6093 170.988 36.1C170.121 37.5907 169.688 39.3933 169.688 41.508V41.612C171.733 41.1267 173.345 40.3987 174.524 39.428C175.702 38.4573 176.292 37.3307 176.292 36.048C176.292 35.3893 176.101 34.8693 175.72 34.488C175.373 34.072 174.888 33.864 174.264 33.864Z" stroke="black" stroke-width="8" mask="url(#path-1-outside-1_13_8)"/>
<path d="M205.598 35.892C206.36 35.892 207.002 36.1693 207.522 36.724C208.076 37.244 208.354 37.9027 208.354 38.7C208.354 39.1507 208.25 39.636 208.042 40.156C207.487 41.4387 206.707 42.5133 205.702 43.38C204.696 44.2467 203.587 44.68 202.374 44.68C201.403 44.68 200.571 44.3333 199.878 43.64C199.219 42.9467 198.89 42.0107 198.89 40.832C198.89 40.1733 198.924 39.4627 198.994 38.7C199.063 38.1453 199.098 37.764 199.098 37.556C199.098 37.2787 199.028 37.0707 198.89 36.932C198.786 36.7933 198.647 36.724 198.474 36.724C197.988 36.724 197.33 37.3133 196.498 38.492C195.666 39.636 194.834 41.1613 194.002 43.068C193.17 44.9747 192.494 46.9853 191.974 49.1C191.592 50.764 191.159 51.8733 190.674 52.428C190.188 52.9827 189.391 53.26 188.282 53.26C186.964 53.26 186.028 52.5667 185.474 51.18C184.954 49.7933 184.694 47.5747 184.694 44.524C184.694 40.0173 185.335 35.736 186.618 31.68C186.93 30.6747 187.432 29.9467 188.126 29.496C188.854 29.0107 189.859 28.768 191.142 28.768C191.835 28.768 192.32 28.8547 192.598 29.028C192.875 29.2013 193.014 29.5307 193.014 30.016C193.014 30.5707 192.754 31.8187 192.234 33.76C191.887 35.1467 191.61 36.36 191.402 37.4C191.194 38.44 191.02 39.7227 190.882 41.248C192.026 38.2667 193.308 35.84 194.73 33.968C196.151 32.096 197.538 30.7613 198.89 29.964C200.242 29.1667 201.472 28.768 202.582 28.768C203.587 28.768 204.35 29.0627 204.87 29.652C205.424 30.2067 205.702 31.0387 205.702 32.148C205.702 32.8067 205.511 34.0547 205.13 35.892H205.598Z" stroke="black" stroke-width="8" mask="url(#path-1-outside-1_13_8)"/>
<path d="M218.688 54.404C216.885 54.404 215.498 53.988 214.528 53.156C213.592 52.324 213.124 51.388 213.124 50.348C213.124 49.4467 213.453 48.6667 214.112 48.008C214.77 47.3493 215.741 47.02 217.024 47.02C217.474 47.02 217.994 47.072 218.584 47.176C219.208 47.2453 219.676 47.2973 219.988 47.332C219.953 46.4307 219.745 45.5813 219.364 44.784C219.017 43.9867 218.566 43.224 218.012 42.496C217.457 41.7333 216.937 41.0747 216.452 40.52C215.377 42.5653 214.302 44.264 213.228 45.616C212.188 46.968 211.044 48.2507 209.796 49.464C209.172 50.088 208.513 50.4 207.82 50.4C207.265 50.4 206.814 50.2093 206.468 49.828C206.121 49.412 205.948 48.9093 205.948 48.32C205.948 47.6267 206.19 46.9853 206.676 46.396L207.352 45.564C209.258 43.2067 210.697 41.2653 211.668 39.74C212.292 38.7347 212.916 37.5387 213.54 36.152C214.198 34.7653 215.048 32.876 216.088 30.484C216.746 28.9587 218.116 28.196 220.196 28.196C221.166 28.196 221.842 28.2827 222.224 28.456C222.605 28.6293 222.796 28.9067 222.796 29.288C222.796 29.496 222.726 29.8253 222.588 30.276C222.449 30.7267 222.258 31.1773 222.016 31.628C221.392 32.876 221.08 33.9333 221.08 34.8C221.08 35.32 221.253 35.892 221.6 36.516C221.981 37.14 222.553 37.92 223.316 38.856C224.425 40.312 225.257 41.56 225.812 42.6C226.401 43.6053 226.696 44.7147 226.696 45.928C226.696 47.384 226.349 48.7707 225.656 50.088C224.997 51.3707 224.061 52.4107 222.848 53.208C221.634 54.0053 220.248 54.404 218.688 54.404Z" stroke="black" stroke-width="8" mask="url(#path-1-outside-1_13_8)"/>
<path d="M234.643 53.26C233.117 53.26 231.956 52.844 231.159 52.012C230.396 51.18 230.015 50.088 230.015 48.736C230.015 47.176 230.448 45.928 231.315 44.992C232.216 44.056 233.464 43.588 235.059 43.588C236.584 43.588 237.728 43.9693 238.491 44.732C239.288 45.46 239.687 46.552 239.687 48.008C239.687 49.6027 239.236 50.8853 238.335 51.856C237.433 52.792 236.203 53.26 234.643 53.26Z" stroke="black" stroke-width="8" mask="url(#path-1-outside-1_13_8)"/>
<path d="M253.326 53.26C249.929 53.26 247.277 52.3067 245.37 50.4C243.498 48.4587 242.562 45.9107 242.562 42.756C242.562 39.948 243.117 37.4867 244.226 35.372C245.336 33.2573 246.774 31.628 248.542 30.484C250.31 29.34 252.165 28.768 254.106 28.768C256.013 28.768 257.486 29.34 258.526 30.484C259.601 31.5933 260.138 33.032 260.138 34.8C260.138 36.256 259.809 37.4867 259.15 38.492C258.526 39.4973 257.694 40 256.654 40C255.996 40 255.458 39.844 255.042 39.532C254.661 39.22 254.47 38.7867 254.47 38.232C254.47 37.9893 254.505 37.712 254.574 37.4C254.644 37.088 254.696 36.8627 254.73 36.724C254.904 36.204 254.99 35.7187 254.99 35.268C254.99 34.8173 254.869 34.4707 254.626 34.228C254.418 33.9853 254.106 33.864 253.69 33.864C252.893 33.864 252.148 34.228 251.454 34.956C250.761 35.6493 250.206 36.6027 249.79 37.816C249.374 39.0293 249.166 40.364 249.166 41.82C249.166 45.8413 250.917 47.852 254.418 47.852C255.84 47.852 257.365 47.384 258.994 46.448C260.658 45.4773 262.288 44.0387 263.882 42.132C264.298 41.6467 264.766 41.404 265.286 41.404C265.737 41.404 266.084 41.612 266.326 42.028C266.604 42.444 266.742 43.016 266.742 43.744C266.742 45.0613 266.413 46.136 265.754 46.968C264.125 48.9787 262.166 50.5387 259.878 51.648C257.625 52.7227 255.441 53.26 253.326 53.26Z" stroke="black" stroke-width="8" mask="url(#path-1-outside-1_13_8)"/>
<path d="M291.399 41.404C291.85 41.404 292.196 41.612 292.439 42.028C292.716 42.444 292.855 43.016 292.855 43.744C292.855 45.1307 292.526 46.2053 291.867 46.968C290.272 48.8053 288.626 50.3133 286.927 51.492C285.263 52.6707 283.356 53.26 281.207 53.26C279.439 53.26 278.104 52.7573 277.203 51.752C276.302 50.712 275.851 49.2213 275.851 47.28C275.851 46.3093 276.094 44.576 276.579 42.08C277.03 39.896 277.255 38.388 277.255 37.556C277.255 37.0013 277.064 36.724 276.683 36.724C276.232 36.724 275.591 37.3133 274.759 38.492C273.927 39.636 273.095 41.1613 272.263 43.068C271.431 44.9747 270.755 46.9853 270.235 49.1C269.576 51.8733 267.947 53.26 265.347 53.26C264.307 53.26 263.614 52.896 263.267 52.168C262.955 51.4053 262.799 50.0533 262.799 48.112C262.799 47.0027 262.816 46.1187 262.851 45.46L262.903 41.3C262.903 35.9613 263.44 30.3973 264.515 24.608C265.624 18.8187 267.236 13.9653 269.351 10.048C271.5 6.096 274.066 4.12 277.047 4.12C278.642 4.12 279.924 4.81333 280.895 6.2C281.9 7.552 282.403 9.32 282.403 11.504C282.403 15.0053 281.38 18.6453 279.335 22.424C277.29 26.168 273.962 30.5533 269.351 35.58C269.247 37.3827 269.195 39.2373 269.195 41.144C270.339 38.1973 271.604 35.8053 272.991 33.968C274.412 32.096 275.799 30.7613 277.151 29.964C278.538 29.1667 279.803 28.768 280.947 28.768C283.2 28.768 284.327 29.8947 284.327 32.148C284.327 33.5 283.946 35.944 283.183 39.48C282.524 42.496 282.195 44.4893 282.195 45.46C282.195 46.8467 282.698 47.54 283.703 47.54C284.396 47.54 285.211 47.124 286.147 46.292C287.118 45.4253 288.4 44.0387 289.995 42.132C290.411 41.6467 290.879 41.404 291.399 41.404ZM275.955 9.268C275.331 9.268 274.638 10.1693 273.875 11.972C273.112 13.74 272.367 16.1493 271.639 19.2C270.946 22.216 270.374 25.5093 269.923 29.08C272.072 26.5493 273.84 23.7933 275.227 20.812C276.648 17.8307 277.359 15.1267 277.359 12.7C277.359 11.5907 277.238 10.7413 276.995 10.152C276.752 9.56266 276.406 9.268 275.955 9.268Z" stroke="black" stroke-width="8" mask="url(#path-1-outside-1_13_8)"/>
<path d="M295.037 53.26C292.887 53.26 291.171 52.48 289.889 50.92C288.606 49.36 287.965 47.3147 287.965 44.784C287.965 42.0107 288.606 39.3933 289.889 36.932C291.171 34.436 292.87 32.4427 294.985 30.952C297.134 29.4267 299.405 28.664 301.797 28.664C302.559 28.664 303.062 28.82 303.305 29.132C303.582 29.4093 303.807 29.9293 303.981 30.692C304.709 30.5533 305.471 30.484 306.269 30.484C307.967 30.484 308.817 31.0907 308.817 32.304C308.817 33.032 308.557 34.7653 308.037 37.504C307.239 41.4907 306.841 44.264 306.841 45.824C306.841 46.344 306.962 46.76 307.205 47.072C307.482 47.384 307.829 47.54 308.245 47.54C308.903 47.54 309.701 47.124 310.637 46.292C311.573 45.4253 312.838 44.0387 314.433 42.132C314.849 41.6467 315.317 41.404 315.837 41.404C316.287 41.404 316.634 41.612 316.877 42.028C317.154 42.444 317.293 43.016 317.293 43.744C317.293 45.1307 316.963 46.2053 316.305 46.968C314.883 48.736 313.375 50.2267 311.781 51.44C310.186 52.6533 308.643 53.26 307.153 53.26C306.009 53.26 304.951 52.8787 303.981 52.116C303.045 51.3187 302.334 50.244 301.849 48.892C300.046 51.804 297.775 53.26 295.037 53.26ZM296.909 48.008C297.671 48.008 298.399 47.5573 299.093 46.656C299.786 45.7547 300.289 44.5587 300.601 43.068L302.525 33.5C301.069 33.5347 299.717 34.0893 298.469 35.164C297.255 36.204 296.285 37.5907 295.557 39.324C294.829 41.0573 294.465 42.8947 294.465 44.836C294.465 45.9107 294.673 46.708 295.089 47.228C295.539 47.748 296.146 48.008 296.909 48.008Z" stroke="black" stroke-width="8" mask="url(#path-1-outside-1_13_8)"/>
<path d="M321.646 33.708C321.577 35.4413 321.542 36.7933 321.542 37.764C321.542 40.26 321.664 42.2187 321.906 43.64C322.184 45.0267 322.617 46.032 323.206 46.656C323.83 47.2453 324.68 47.54 325.754 47.54C326.309 47.54 326.968 47.3667 327.73 47.02C328.493 46.6733 329.186 46.2227 329.81 45.668C330.192 45.3213 330.573 45.148 330.954 45.148C331.37 45.148 331.7 45.3907 331.942 45.876C332.22 46.3267 332.358 46.8813 332.358 47.54C332.358 48.1987 332.22 48.84 331.942 49.464C331.7 50.088 331.318 50.608 330.798 51.024C328.996 52.5147 326.95 53.26 324.662 53.26C321.369 53.26 318.96 51.8907 317.434 49.152C315.909 46.3787 315.146 42.7733 315.146 38.336C315.146 36.8107 315.198 35.268 315.302 33.708H313.274C312.234 33.708 311.524 33.5173 311.142 33.136C310.796 32.7547 310.622 32.148 310.622 31.316C310.622 29.3747 311.402 28.404 312.962 28.404H315.926C316.516 24.5907 317.417 21.1067 318.63 17.952C319.844 14.7973 321.3 12.284 322.998 10.412C324.732 8.54 326.586 7.604 328.562 7.604C330.018 7.604 331.162 8.24533 331.994 9.528C332.826 10.8107 333.242 12.4227 333.242 14.364C333.242 19.7373 330.989 24.4173 326.482 28.404H332.306C332.861 28.404 333.26 28.5253 333.502 28.768C333.745 29.0107 333.866 29.4613 333.866 30.12C333.866 32.512 331.908 33.708 327.99 33.708H321.646ZM327.158 12.596C326.638 12.596 326.049 13.2547 325.39 14.572C324.766 15.8547 324.16 17.6573 323.57 19.98C323.016 22.268 322.548 24.816 322.166 27.624C324.212 25.856 325.737 23.88 326.742 21.696C327.782 19.4773 328.302 17.4667 328.302 15.664C328.302 13.6187 327.921 12.596 327.158 12.596Z" stroke="black" stroke-width="8" mask="url(#path-1-outside-1_13_8)"/>
</g>
<defs>
<filter id="filter0_d_13_8" x="0.717224" y="0.119995" width="341.149" height="88.54" filterUnits="userSpaceOnUse" color-interpolation-filters="sRGB">
<feFlood flood-opacity="0" result="BackgroundImageFix"/>
<feColorMatrix in="SourceAlpha" type="matrix" values="0 0 0 0 0 0 0 0 0 0 0 0 0 0 0 0 0 0 127 0" result="hardAlpha"/>
<feOffset dy="4"/>
<feGaussianBlur stdDeviation="2"/>
<feComposite in2="hardAlpha" operator="out"/>
<feColorMatrix type="matrix" values="0 0 0 0 0 0 0 0 0 0 0 0 0 0 0 0 0 0 0.25 0"/>
<feBlend mode="normal" in2="BackgroundImageFix" result="effect1_dropShadow_13_8"/>
<feBlend mode="normal" in="SourceGraphic" in2="effect1_dropShadow_13_8" result="shape"/>
</filter>
</defs>
</svg>
